<?xml version="1.0" encoding="UTF-8"?>
<svg id="Camada_2" data-name="Camada 2" xmlns="http://www.w3.org/2000/svg" viewBox="0 0 1469.01 619.66">
  <defs>
    <style>
      .cls-1 {
        fill: #fff;
      }
    </style>
  </defs>
  <g id="Logo">
    <g>
      <g>
        <path class="cls-1" d="M745.18,491.59c-1.73-.6-3.91-1.63-6.53-3.1v1.6c0,1.38-.69,2.07-2.07,2.07h-3.47v-49.99h3.73c1.38,0,2.07.69,2.07,2.07v14.53c2.71-1.33,4.89-2.27,6.53-2.8,1.64-.53,3.35-.8,5.13-.8h.67c4.93,0,8.9,1.48,11.9,4.43,3,2.96,4.5,7.19,4.5,12.7v3.2c0,3.6-.7,6.68-2.1,9.23-1.4,2.56-3.36,4.49-5.87,5.8-2.51,1.31-5.39,1.97-8.63,1.97h-.6c-1.78,0-3.53-.3-5.27-.9ZM758.54,484.32c2.11-2.07,3.17-5.03,3.17-8.9v-3.2c0-3.91-1.05-6.92-3.13-9.03-2.09-2.11-4.91-3.17-8.47-3.17h-1.33c-1.51,0-3.06.24-4.63.73-1.58.49-3.32,1.16-5.23,2v21.8c2.09.93,3.9,1.64,5.43,2.13,1.53.49,2.99.73,4.37.73h1.27c3.6,0,6.45-1.03,8.57-3.1Z"/>
        <path class="cls-1" d="M770.44,505.55v-2.73c0-1.38.76-2.07,2.27-2.07h2c2.49,0,4.48-.32,5.97-.97,1.49-.65,2.68-1.56,3.57-2.73.89-1.18,1.8-2.81,2.73-4.9l-16.13-36.66h4.6c1.16,0,1.95.53,2.4,1.6l11.87,28.2,11.2-28.2c.4-1.07,1.2-1.6,2.4-1.6h4.07l-14.8,37.06c-1.38,3.47-2.81,6.14-4.3,8.03-1.49,1.89-3.28,3.23-5.37,4.03-2.09.8-4.78,1.2-8.07,1.2-1.56,0-3.02-.09-4.4-.27Z"/>
      </g>
      <g>
        <path class="cls-1" d="M989.81,479.28c-.94-3.45-3.19-6.56-6.37-8.94-16.64-12.5-36.43-21.86-57.96-27.41-2.08-.54-4.25-.81-6.41-.81s-4.33.27-6.41.81c-21.54,5.56-41.33,14.92-57.96,27.41-3.18,2.39-5.43,5.5-6.37,8.94-2.48,9.08-3.72,18.32-3.72,27.57v48.08c0,9.25,1.24,18.5,3.72,27.57.94,3.45,3.19,6.55,6.37,8.94,16.64,12.49,36.43,21.86,57.96,27.41,2.08.54,4.25.81,6.41.81s4.33-.27,6.41-.81c21.53-5.56,41.33-14.92,57.96-27.41,3.18-2.39,5.43-5.5,6.37-8.94,2.48-9.08,3.72-18.32,3.72-27.57v-48.08c0-9.25-1.24-18.5-3.72-27.57M987.74,534.04c-.84,3.07-2.82,5.85-5.74,8.04-8.17,6.13-17.17,11.55-26.77,16.08-9.6,4.54-19.82,8.23-30.39,10.95-1.88.48-3.82.73-5.78.73s-3.91-.25-5.78-.73c-10.57-2.73-20.79-6.41-30.39-10.95-9.6-4.54-18.6-9.95-26.77-16.08-2.91-2.19-4.9-4.97-5.74-8.04h0c-.56-2.06-.56-4.24,0-6.3h0c.84-3.07,2.82-5.85,5.74-8.04,8.17-6.13,17.17-11.55,26.77-16.09,9.6-4.54,19.82-8.22,30.39-10.95,1.87-.48,3.82-.72,5.78-.72s3.91.25,5.78.72c10.57,2.73,20.79,6.41,30.39,10.95,9.6,4.54,18.6,9.96,26.77,16.09,2.92,2.19,4.9,4.97,5.74,8.04.56,2.07.56,4.24,0,6.31"/>
        <path class="cls-1" d="M1058.08,505.13h-21.68c-3.63,0-5.65-1.97-5.65-5.47v-13.29h76.19v13.29c0,3.5-2.01,5.47-5.65,5.47h-21.68v70.27h-21.54v-70.27Z"/>
        <path class="cls-1" d="M1162.54,556.12c5.28-2.32,9.05-4.98,13.52-8.43,3.33-2.57,5-6.04,5.41-10.03.58-5.65.59-7.9,0-13.54-.4-3.79-2.18-7.37-5.41-9.89-4.42-3.65-8.18-6.24-13.52-8.56-1.65-.73-3.63-1.13-5.74-1.13s-4.09.4-5.74,1.13c-5.34,2.32-9.1,4.91-13.52,8.56-3.23,2.52-5.01,6.11-5.41,9.89-.6,5.64-.58,7.9,0,13.54.41,3.98,2.07,7.41,5.41,10.03,4.45,3.48,8.24,6.11,13.52,8.43,1.71.73,3.63,1,5.74,1s4.02-.27,5.74-1M1142.75,575.24c-6.27-2.44-13.65-6.17-19-10.16-7.78-5.77-12.63-14.68-13.72-24.3-.77-6.84-.77-12.95,0-19.79,1.08-9.62,5.94-18.53,13.72-24.17,5.34-4.12,12.71-7.89,19-10.36,4.34-1.7,9.04-2.99,14.05-2.99s9.71,1.3,14.05,2.99c6.35,2.48,13.65,6.24,19,10.36,7.78,5.64,12.63,14.55,13.72,24.17.77,6.84.77,12.95,0,19.79-1.08,9.62-5.94,18.53-13.72,24.3-5.34,3.99-12.66,7.7-19,10.16-4.48,1.73-9.04,3.05-14.05,3.05s-9.57-1.31-14.05-3.05"/>
        <path class="cls-1" d="M1233.98,505.13h-21.68c-3.63,0-5.65-1.97-5.65-5.47v-13.29h76.19v13.29c0,3.5-2.01,5.47-5.65,5.47h-21.68v70.27h-21.54v-70.27Z"/>
        <path class="cls-1" d="M1324.51,572.16l-23.66-30.53c-1.72-2.16-2.29-4.07-2.29-6.74v-48.52h15.65c3.5,0,5.47,1.91,5.47,5.47v38.73c0,2.67.57,4.71,2.29,6.8l15.77,19.59,15.07-19.59c1.59-2.16,2.29-4.13,2.29-6.8v-38.73c0-3.5,1.91-5.47,5.47-5.47h15.64v48.52c0,2.67-.7,4.64-2.29,6.8l-23.4,30.46c-1.72,2.29-3.82,3.24-6.68,3.24h-12.65c-2.92,0-4.96-.95-6.68-3.24"/>
        <path class="cls-1" d="M1390.1,546.71h16.57c3.86,0,4.51,1.31,5.59,4.99,1.54,5.23,6.06,7.98,15.3,7.98h4.92c9.51,0,14.44-2.93,14.44-8.78v-1.93c0-3.59-3.13-5.92-9.32-7.05l-20.96-3.79c-14.97-2.66-25.02-9.78-25.02-22.89v-5.12c0-16.43,14.7-25.82,32.27-25.82h10.05c21.03,0,32.87,11.18,32.87,28.75h-16.77c-3.33,0-4.29-.79-4.99-3.53-1.26-4.91-4.79-7.38-12.31-7.38h-5.72c-6.72,0-13.31,1.86-13.31,7.92v2.06c0,3.2,2.86,5.46,8.72,6.46l21.89,3.92c14.57,2.59,24.68,9.32,24.68,23.09v5.32c0,17.83-15.77,26.68-34.67,26.68h-9.05c-20.56,0-35.2-9.32-35.2-30.87"/>
      </g>
    </g>
    <g id="Camada_1-2" data-name="Camada 1">
      <path class="cls-1" d="M552.17,38.05c-.08,19.31-15.71,34.85-35.01,34.82-19.28-.03-35.09-16.13-35.09-35.43,0-17.1,13.47-34.32,35.22-34.99,19.23-.6,34.97,16.04,34.89,35.59"/>
      <path class="cls-1" d="M879.55,184.89c0,51.72-.15,103.44.15,155.16.04,7.61-4.14,13.16-12.35,12.99-9.56-.2-19.12-.26-28.68-.17-6.62.06-10.72-3.61-11.13-10.1-.23-3.65-.17-7.32-.18-10.98-.07-100.1-.15-200.2-.19-300.3,0-14.29,6.75-23.69,19.64-27.66,15.47-4.76,32.62,7.69,32.74,23.97.14,17.51.03,35.01.03,52.52v104.56h-.04s0,0,0,0Z"/>
      <path class="cls-1" d="M311.56,125.89c.64,25.6-1.25,56.53,1.1,87.34,2.06,27.02,11.4,51.09,32.68,69.32,37.79,32.37,119.21,29.4,141.21-43.64,3.7-12.29,5.4-24.88,5.51-37.63.22-25.31.02-50.62.15-75.93.09-18.77,15.62-30.62,33.67-25.9,9.74,2.55,17.9,12.58,17.94,22.86.12,28.17.73,56.37-.22,84.51-1.07,31.54-9.31,61.29-27.79,87.43-23.85,33.73-56.84,52.23-97.76,56.39-40.19,4.09-76.67-5.47-107.74-31.95-26.04-22.19-40.2-51.21-46.76-84.34-4.43-22.35-3.6-44.97-3.63-67.54-.06-46.16-.08-92.32-.03-138.48.02-14.86,12.49-26.83,27.05-26.25,13.25.53,24.52,12.43,24.62,26.36.13,18.78.03,37.57.03,56.35v41.73"/>
      <path class="cls-1" d="M93.5,351.56c-28.28-.64-56.24-7.78-81.91-22.96-10.31-6.1-13.78-16.09-10.26-27.52,4.06-13.16,12.72-20.3,24.15-19.92,4.42.15,8.33,1.77,12.11,3.97,13.41,7.8,27.29,14.52,42.73,17.32,13.91,2.52,27.61,1.79,40.97-3.06,28.24-10.25,37.86-41.45,20.44-66.01-7.27-10.24-16.82-17.8-27.77-23.64-18.27-9.75-36.84-18.93-54.93-28.99-25.33-14.09-43.28-34.35-49.84-63.27-4.16-18.32-3.99-36.69,1.57-54.69,9.06-29.31,30.54-45.97,58.76-54.37,39.33-11.7,76.9-7.17,111.76,15.19,8.06,5.17,11.97,12.81,10.48,22.42-1.56,10.02-6.14,18.15-16.64,21.27-6.95,2.06-13.58.92-19.63-3.15-17.65-11.86-37.14-16.26-58.2-14.32-7.87.73-15.34,2.83-22.22,6.77-18.26,10.45-23.57,37.54-11.08,56.8,6.08,9.38,14.22,16.66,23.58,22.69,20.64,13.29,42.65,24.26,63.63,36.95,19.92,12.05,36.37,27.47,45.8,49.2,21.4,49.33-5.56,106.27-57.83,122.57-14.42,4.5-29.18,6.52-45.69,6.74"/>
      <path class="cls-1" d="M610.06,237.4c0-31.04-.1-62.09.03-93.13.13-29.6,5.85-57.85,21.61-83.41,20.23-32.8,50.07-51.36,87.64-58.1,8.82-1.58,17.73-2.84,26.73-2.76,10.4.09,19.93,6.7,23.61,16.1,3.58,9.16,1.27,19.54-5.99,26.49-5.25,5.02-11.63,7-18.83,7.08-15.5.16-30.2,3.55-43.49,11.82-20.55,12.79-30.84,32.24-35.59,55.21-3.4,16.44-2.65,33.11-2.67,49.73-.08,57.45-.06,114.89-.07,172.34,0,10.84-3.98,13.87-16.21,13.31-7.05-.32-14.12-.23-21.17.03-11.28.41-15.42-3.06-15.43-13.42,0-33.76,0-67.53,0-101.29h-.17,0Z"/>
      <g>
        <path class="cls-1" d="M1261.69,148.39c-15.89,0-27.83,11.56-27.83,28.46s11.95,28.46,27.83,28.46,27.83-11.56,27.83-28.46-11.95-28.46-27.83-28.46Z"/>
        <path class="cls-1" d="M1363.23,149.15h-16.77v30.87h16.77c12.58,0,18.93-5.72,18.93-15.37s-6.35-15.5-18.93-15.5Z"/>
        <path class="cls-1" d="M1444.56,91.54h-466.6c-13.51,0-24.45,10.95-24.45,24.45v122.24c0,13.51,10.95,24.45,24.45,24.45h466.6c13.51,0,24.45-10.95,24.45-24.45v-122.24c0-13.51-10.95-24.45-24.45-24.45ZM1064.08,222.84c-14.11,0-28.34-4.19-36.22-10.29h0l6.99-15.5c7.5,5.46,18.68,9.27,29.35,9.27,12.2,0,17.16-4.06,17.16-9.53,0-16.64-51.72-5.21-51.72-38.24,0-15.12,12.2-27.7,37.49-27.7,11.18,0,22.62,2.67,30.88,7.88l-6.35,15.63c-8.26-4.7-16.77-6.99-24.65-6.99-12.2,0-16.9,4.57-16.9,10.16,0,16.39,51.72,5.08,51.72,37.73,0,14.86-12.33,27.57-37.74,27.57h0ZM1197.52,221.32h-20.59v-36.46h-40.41v36.46h-20.59v-88.93h20.59v35.06h40.41v-35.06h20.59v88.93ZM1261.69,222.84c-27.96,0-48.67-19.56-48.67-45.99s20.59-45.99,48.67-45.99,48.67,19.44,48.67,45.99-20.71,45.99-48.67,45.99ZM1403.01,164.66c0,19.82-14.87,32.14-38.63,32.14h-17.92v24.52h-20.59v-88.93h38.51c23.76,0,38.63,12.32,38.63,32.27h0Z"/>
      </g>
    </g>
  </g>
</svg>