<?xml version="1.0" encoding="UTF-8"?>
<svg id="Camada_2" data-name="Camada 2" xmlns="http://www.w3.org/2000/svg" viewBox="0 0 6025.91 1773.98">
  <defs>
    <style>
      .cls-1 {
        fill: #56b255;
      }

      .cls-2 {
        fill: #fff;
      }
    </style>
  </defs>
  <g id="Camada_1-2" data-name="Camada 1">
    <path class="cls-1" d="M5719.87,821.51c0-13.33-4.87-31.43,1.26-38.75,7.28-8.7,24.21-2.38,36.95-2.62,7.74-.15,15.58.86,23.25,2.2,19.82,3.45,31.14,17.7,31.22,38.59.09,21.69-11.77,36.15-31.64,39.93-17.81,3.39-35.71,1.92-53.57,2.67-6.61.28-8.97-1.96-8.66-9.22.47-10.91.12-21.87.12-32.8.36,0,.71,0,1.07,0"/>
    <path class="cls-2" d="M5367.16,880.43c-.76-53.28,11.04-98.45,50.11-128.96,42.21-32.97,89.42-33.68,135.92-12.87,44.34,19.86,64.64,60.2,70.66,110.46,3.29,27.52,2.24,54.6-4.46,81.15-18.21,72.23-75.78,107.05-145.91,95.52-70.47-11.58-106.44-63.84-106.3-145.3M5568.96,876.8c.24-13.65-.55-26.43-3.19-39.1-7.45-35.75-32.62-59.18-65.53-60.69-35.12-1.61-62.5,19.09-72.27,55.21-7.22,26.69-7.63,53.83-1.87,80.81,7.64,35.77,29.99,58.42,61.19,63.32,26.66,4.19,55.31-10.21,68.92-35.82,10.54-19.82,13.47-41.82,12.74-63.72"/>
    <path class="cls-2" d="M4965.28,1027.34c-15.47.74-29.87-1.5-44.14-5.67-39.22-11.47-58.12-41.76-66.01-82.53-1.41-7.28.58-11.18,7.92-11.35,4.1-.1,8.3-.54,12.27-1.62,19.86-5.42,31.85-2.4,41,22.61,12.21,33.4,68.93,38.34,91.64,11.54,14.7-17.35,11.16-39.66-9.3-48.18-18.67-7.78-38.45-12.4-57.69-18.61-8.74-2.82-17.53-5.63-25.97-9.31-33.59-14.66-53.43-45.8-51.25-79.79,2.35-36.67,25.38-65,61.45-74.12,27.23-6.89,54.66-6.27,81.55,2.27,31.93,10.15,53.49,39.28,56.71,74.59.6,6.59-1.01,8.86-7.13,8.83-6.4-.03-12.81.91-19.19,1.71-15.54,1.96-30.92,4.7-34.29-19.54-.93-6.68-6.94-11.76-12.99-14.6-20.94-9.81-42.03-9.8-62.12,2.08-16.16,9.55-16.18,28.51-.54,39.16,14.57,9.92,31.57,12.61,47.74,17.7,13.58,4.27,27.43,7.77,40.67,13.04,38.8,15.45,58.89,47.29,55.69,86.8-3.54,43.68-30.02,74.18-71.18,81.93-11.76,2.21-23.56,4.02-34.85,3.06"/>
    <path class="cls-2" d="M5326.34,877.36c0,44.23-.22,88.46.18,132.68.08,8.86-1.64,12.41-10.5,11.73-14.12-1.08-32.75,4.92-41.3-2.75-8.96-8.04-2.45-28.91-2.73-44.16-.44-23.35-.48-46.72.07-70.06.21-9.04-2.07-11.91-10.69-11.72-27.53.6-55.09.6-82.62,0-8.53-.19-10.88,2.45-10.75,11.62.48,34.78-.06,69.57.36,104.35.11,9.25-1.56,13.64-11.19,12.73-10.02-.95-20.24-.97-30.26,0-10.54,1.01-13.8-2.32-13.69-14.36.6-67.58.29-135.16.29-202.75,0-20.87.3-41.75-.15-62.61-.17-7.74,1.83-10.48,9.19-10.06,14.62.82,33.28-5.03,42.76,2.69,9.09,7.41,2.38,28.79,2.77,44.01.48,18.37.5,36.78-.05,55.15-.26,8.71,1.46,12.12,10.41,11.9,27.53-.68,55.09-.75,82.62.03,9.73.27,11.13-3.75,11-12.81-.44-29.81.18-59.64-.36-89.44-.17-9.33,2.45-12.19,10.88-11.55,10.05.76,20.24.88,30.27-.01,10.29-.91,14.04,1.89,13.82,14.22-.79,43.71-.31,87.46-.31,131.18"/>
    <path class="cls-2" d="M5664.24,876.83c0-43.74.42-87.5-.28-131.23-.18-11.49,2.93-14.07,13-13.67,41.72,1.64,83.61-2.85,125.2,2.66,39.86,5.28,64.66,35.63,66.42,78.98,2.39,58.89-27.87,93.85-84.58,97-17.41.97-34.91,1.13-52.33.37-10.01-.44-13.52,2.13-13.16,13.74.85,27.81-.09,55.67.47,83.5.2,9.84-1.46,14.74-11.79,13.54-13.99-1.62-32.84,6.37-40.81-3.28-6.93-8.39-2.07-28.35-2.12-43.2-.11-32.81-.04-65.62-.04-98.42M5719.87,821.51c-.36,0-.71,0-1.07,0,0,10.94.35,21.89-.12,32.8-.32,7.26,2.05,9.5,8.66,9.22,17.86-.75,35.76.71,53.57-2.67,19.87-3.78,31.72-18.24,31.64-39.93-.08-20.89-11.4-35.14-31.22-38.59-7.67-1.34-15.51-2.35-23.25-2.2-12.73.24-29.67-6.08-36.95,2.62-6.13,7.32-1.26,25.42-1.26,38.75"/>
    <path class="cls-1" d="M5349.47,1164.68c-204.32,0-408.64,0-612.97,0-42.07,0-63.54-23.16-63.54-68.58-.01-136.69-.02-273.38,0-410.07,0-43.43,21.98-67.22,62.08-67.22,409.57-.01,819.13-.01,1228.69,0,40.15,0,62.15,23.78,62.16,67.13.02,137.19.02,274.37,0,411.56,0,43.43-21.95,67.17-62.07,67.18-204.78.01-409.57,0-614.35,0M5367.16,880.43c-.13,81.46,35.84,133.72,106.3,145.3,70.13,11.53,127.7-23.3,145.92-95.52,6.7-26.55,7.75-53.63,4.46-81.15-6.01-50.26-26.31-90.6-70.66-110.46-46.49-20.82-93.7-20.1-135.92,12.87-39.07,30.51-50.86,75.69-50.11,128.96M4965.28,1027.34c11.29.97,23.09-.84,34.85-3.06,41.16-7.75,67.64-38.25,71.18-81.93,3.2-39.51-16.89-71.34-55.69-86.8-13.24-5.28-27.09-8.77-40.67-13.04-16.18-5.09-33.18-7.77-47.74-17.69-15.64-10.66-15.62-29.61.54-39.17,20.1-11.88,41.18-11.9,62.13-2.08,6.05,2.84,12.06,7.92,12.99,14.6,3.37,24.23,18.74,21.5,34.29,19.54,6.38-.8,12.8-1.75,19.19-1.72,6.12.03,7.73-2.23,7.13-8.83-3.22-35.3-24.77-64.44-56.71-74.59-26.89-8.55-54.32-9.16-81.55-2.28-36.08,9.12-59.1,37.45-61.45,74.12-2.18,34,17.65,65.13,51.25,79.8,8.44,3.68,17.23,6.49,25.97,9.31,19.24,6.22,39.02,10.83,57.69,18.61,20.46,8.52,24,30.83,9.3,48.18-22.71,26.8-79.43,21.86-91.64-11.54-9.15-25.01-21.14-28.04-41-22.61-3.97,1.08-8.16,1.52-12.27,1.62-7.34.17-9.33,4.07-7.92,11.35,7.89,40.77,26.78,71.06,66.01,82.53,14.27,4.17,28.66,6.42,44.14,5.67M5326.34,877.37c0-43.73-.49-87.47.31-131.18.22-12.33-3.53-15.13-13.82-14.22-10.03.89-20.22.77-30.27.01-8.42-.63-11.05,2.23-10.88,11.55.54,29.8-.07,59.63.36,89.44.13,9.06-1.27,13.08-11,12.8-27.52-.78-55.09-.7-82.62-.03-8.95.22-10.67-3.19-10.41-11.9.55-18.37.54-36.78.06-55.15-.4-15.22,6.32-36.6-2.77-44.01-9.48-7.72-28.15-1.87-42.76-2.69-7.36-.41-9.36,2.32-9.19,10.06.45,20.86.15,41.74.15,62.61,0,67.58.31,135.17-.29,202.75-.11,12.04,3.15,15.37,13.69,14.36,10.02-.96,20.24-.94,30.26,0,9.63.91,11.3-3.49,11.19-12.73-.42-34.78.12-69.57-.36-104.35-.13-9.16,2.22-11.8,10.75-11.62,27.53.6,55.09.6,82.62,0,8.63-.19,10.91,2.68,10.69,11.72-.55,23.34-.5,46.71-.07,70.06.29,15.25-6.22,36.12,2.73,44.16,8.55,7.67,27.17,1.67,41.3,2.75,8.86.68,10.58-2.86,10.5-11.73-.4-44.23-.18-88.45-.18-132.68M5664.24,876.83c0,32.81-.08,65.62.04,98.42.05,14.85-4.81,34.81,2.12,43.2,7.97,9.65,26.82,1.65,40.81,3.28,10.32,1.2,11.98-3.71,11.79-13.54-.56-27.82.38-55.69-.47-83.5-.36-11.61,3.15-14.18,13.16-13.74,17.41.76,34.92.59,52.33-.37,56.71-3.15,86.97-38.11,84.58-97-1.76-43.35-26.56-73.7-66.42-78.98-41.59-5.51-83.48-1.03-125.2-2.66-10.07-.39-13.19,2.19-13.01,13.67.7,43.73.28,87.48.28,131.23"/>
    <path class="cls-1" d="M5568.96,876.8c.73,21.9-2.2,43.91-12.74,63.72-13.61,25.61-42.26,40-68.92,35.82-31.2-4.9-53.55-27.55-61.19-63.32-5.76-26.98-5.35-54.12,1.87-80.81,9.77-36.11,37.15-56.82,72.27-55.21,32.9,1.51,58.08,24.94,65.53,60.69,2.64,12.67,3.43,25.45,3.19,39.1"/>
    <g>
      <path class="cls-2" d="M1476.31,686.77c3.03,122.71-5.92,270.92,5.19,418.57,9.75,129.48,54.09,244.85,155.11,332.22,179.35,155.13,565.78,140.91,670.18-209.13,17.57-58.91,25.66-119.21,26.17-180.34,1.03-121.28.12-242.58.69-363.86.42-89.95,74.11-146.76,159.8-124.12,46.24,12.22,84.95,60.28,85.16,109.56.57,135.02,3.46,270.15-1.06,405.02-5.06,151.13-44.18,293.71-131.91,419-113.19,161.65-269.75,250.3-463.97,270.25-190.73,19.59-363.88-26.23-511.36-153.11-123.61-106.35-190.81-245.42-221.95-404.2-21.02-107.14-17.11-215.49-17.24-323.67-.28-221.22-.37-442.43-.14-663.65.08-71.2,59.28-128.59,128.36-125.79,62.9,2.55,116.36,59.56,116.83,126.33.63,90.01.15,180.02.14,270.04v196.86"/>
      <path class="cls-2" d="M443.75,1768.28c-134.24-3.04-266.92-37.27-388.75-110.01-48.94-29.23-65.4-77.12-48.67-131.89,19.26-63.06,60.35-97.29,114.63-95.44,21,.71,39.53,8.48,57.49,19.04,63.65,37.4,129.5,69.57,202.81,82.98,66.03,12.08,131.04,8.58,194.44-14.66,134.01-49.12,179.68-198.66,97.01-316.33-34.49-49.1-79.85-85.29-131.8-113.29-86.69-46.71-174.86-90.72-260.71-138.92-120.24-67.51-205.39-164.64-236.56-303.19-19.75-87.79-18.95-175.81,7.45-262.07C94.08,244.01,196.05,164.15,330,123.92c186.68-56.06,364.97-34.36,530.4,72.78,38.26,24.78,56.81,61.38,49.73,107.43-7.39,48.03-29.16,86.99-78.95,101.93-32.96,9.9-64.47,4.39-93.15-15.07-83.79-56.83-176.27-77.94-276.2-68.63-37.35,3.48-72.79,13.56-105.44,32.42-86.66,50.06-111.85,179.9-52.6,272.2,28.85,44.94,67.5,79.86,111.9,108.73,97.98,63.71,202.39,116.27,302,177.11,94.53,57.74,172.62,131.65,217.36,235.79,101.58,236.43-26.39,509.29-274.45,587.38-68.45,21.54-138.51,31.25-216.85,32.29"/>
      <path class="cls-2" d="M2897.48,1225.9c0-147.95-.49-295.9.14-443.84.6-141.07,27.6-275.72,101.98-397.51,95.47-156.32,236.33-244.79,413.66-276.88,41.61-7.53,83.69-13.52,126.16-13.16,49.08.42,94.09,31.94,111.42,76.75,16.89,43.65,5.99,93.12-28.26,126.24-24.77,23.95-54.88,33.38-88.88,33.73-73.17.76-142.56,16.92-205.25,56.31-96.99,60.94-145.55,153.65-167.98,263.14-16.06,78.35-12.5,157.81-12.61,236.99-.38,273.78-.27,547.56-.35,821.34-.01,47.78-16.11,63.74-64.23,63.74-40.1,0-80.2,0-120.29,0-47.14-.01-64.69-17.32-64.7-64.11-.04-160.91-.01-321.82-.01-482.73h-.8Z"/>
      <path class="cls-2" d="M4173.11,968.11c0,247.87-.69,495.73.74,743.59.21,37.49-20.83,64.61-62.02,62.12-44.48-2.68-89.24-.46-133.88-.66-30.75-.14-49.74-17.7-51.68-48.39-1.1-17.48-.83-35.06-.84-52.6-.34-479.71-.69-959.42-.88-1439.13-.03-68.48,32.03-113.53,93.19-132.55,73.43-22.83,154.8,36.86,155.41,114.87.65,83.89.15,167.78.15,251.68v501.07h-.18Z"/>
      <path class="cls-2" d="M2620.61,265.84c-.39,92.54-74.56,167.02-166.19,166.88-91.48-.14-166.53-77.3-166.54-169.78-.01-81.97,63.91-164.45,167.17-167.68,91.27-2.86,165.96,76.85,165.56,170.58"/>
    </g>
  </g>
</svg>